<svg xmlns="http://www.w3.org/2000/svg" 
     width="24" height="24" 
     viewBox="0 0 24 24" 
     fill="white">
  <path d="M12 2.163c3.204 0 3.584.012 4.85.07 1.17.056 1.97.24 2.427.403a4.92 4.92 0 011.75 1.145 4.92 4.92 0 011.145 1.75c.163.457.347 1.257.403 2.427.058 1.266.07 1.646.07 4.85s-.012 3.584-.07 4.85c-.056 1.17-.24 1.97-.403 2.427a4.92 4.92 0 01-1.145 1.75 4.92 4.92 0 01-1.75 1.145c-.457.163-1.257.347-2.427.403-1.266.058-1.646.07-4.85.07s-3.584-.012-4.85-.07c-1.17-.056-1.97-.24-2.427-.403a4.92 4.92 0 01-1.75-1.145 4.92 4.92 0 01-1.145-1.75c-.163-.457-.347-1.257-.403-2.427C2.175 15.747 2.163 15.367 2.163 12s.012-3.584.07-4.85c.056-1.17.24-1.97.403-2.427a4.92 4.92 0 011.145-1.75 4.92 4.92 0 011.75-1.145c.457-.163 1.257-.347 2.427-.403C8.416 2.175 8.796 2.163 12 2.163zm0-2.163C8.736 0 8.332.014 7.052.072 5.772.13 4.675.304 3.8.635a6.918 6.918 0 00-2.493 1.623A6.918 6.918 0 00-.316 4.75C-.647 5.625-.821 6.722-.879 8.002-.937 9.282-.951 9.686-.951 12c0 2.314.014 2.718.072 4 .058 1.28.232 2.377.563 3.252a6.918 6.918 0 001.623 2.493 6.918 6.918 0 002.493 1.623c.875.331 1.972.505 3.252.563 1.28.058 1.684.072 4 .072s2.72-.014 4-.072c1.28-.058 2.377-.232 3.252-.563a6.918 6.918 0 002.493-1.623 6.918 6.918 0 001.623-2.493c.331-.875.505-1.972.563-3.252.058-1.28.072-1.684.072-4s-.014-2.718-.072-4c-.058-1.28-.232-2.377-.563-3.252a6.918 6.918 0 00-1.623-2.493A6.918 6.918 0 0019.25.635C18.375.304 17.278.13 16 .072 14.718.014 14.314 0 12 0z"/>
  <path d="M12 5.838a6.162 6.162 0 100 12.324 6.162 6.162 0 000-12.324zm0 10.162a4 4 0 110-8 4 4 0 010 8z"/>
  <circle cx="18.406" cy="5.594" r="1.44"/>
</svg>
